# This file uses centimeters as units for non-parametric coordinates.

mtllib 3D LEVEL lake 1.mtl
g default
v -8.469436 3.037080 9.802060
v -12.201405 3.037080 7.023301
v -12.846452 3.037080 9.802060
v -5.677164 2.797080 6.847394
v -9.505390 2.797080 6.290156
v -9.505390 3.037080 6.290156
v -5.677164 3.037079 6.847394
v -15.797796 2.797080 19.776993
v -16.806641 2.797080 13.814523
v -12.846452 2.797080 9.802060
v -12.846452 2.797080 13.549290
v -8.469436 2.797080 9.802060
v -12.201405 2.797080 7.023301
v -4.092420 2.797080 9.802060
v -15.797796 3.037079 19.776993
v -12.846452 3.037080 13.549290
v -16.806641 3.037079 13.814523
v -4.092420 3.037080 9.802060
v -8.469436 2.797080 13.549290
v -10.270296 2.912416 13.330096
v -4.338372 2.912416 15.725146
v -8.866467 2.912416 12.367060
v -2.586758 2.797080 9.802060
v -3.651057 2.797080 8.784508
v -1.544085 2.797080 7.499035
v -10.624813 2.912416 14.636588
v -2.586758 3.037080 9.802060
v -1.544085 3.037079 7.499035
v -3.651057 3.037080 8.784508
v -6.716530 2.912416 11.467904
v 0.028989 2.797080 7.759726
v 0.028989 3.037080 7.759726
v -2.487792 2.797080 6.787127
v -2.487792 3.037079 6.787127
v -5.366063 2.912416 11.231304
v -10.492012 2.912416 17.221319
v -1.914543 2.797080 10.679327
v -1.914543 3.037080 10.679327
v -8.866467 3.037080 12.367060
v -10.270296 3.037080 13.330096
v -9.492281 2.912416 18.243889
v 1.574360 2.797080 9.092844
v 1.574360 3.037080 9.092844
v -12.702355 2.797080 19.821495
v -12.846452 2.797080 17.296520
v -12.702355 3.037079 19.821495
v -12.846452 3.037080 17.296520
v -0.687073 2.797080 12.281223
v -0.687073 3.037080 12.281223
v -8.469436 2.797080 17.296520
v -6.981345 2.912416 18.984396
v -4.092420 2.797080 13.549290
v -5.366063 3.037080 11.231304
v -6.716530 3.037080 11.467904
v 2.414248 2.797080 11.180294
v -10.624813 3.037080 14.636588
v -10.492012 3.037080 17.221319
v 2.414248 3.037080 11.180294
v -9.268619 3.037079 22.491856
v -8.469436 3.037080 21.043751
v -10.272489 3.037080 21.043751
v -4.593518 2.912416 19.166300
v -8.469436 3.037079 23.678753
v -2.612516 2.912416 19.377789
v -10.329774 3.037080 13.549290
v -1.024548 2.912416 18.989298
v 2.229248 2.912416 14.838537
v 2.191823 2.912416 15.706066
v -12.524895 2.797080 21.043751
v -10.272489 2.797080 21.043751
v 1.768304 2.912416 16.741543
v 0.635311 2.912416 18.071060
v -12.524895 3.037079 21.043751
v -8.469436 3.037080 12.201012
v -1.974681 3.037080 11.667589
v -3.337384 3.037080 11.508369
v -3.337384 2.912416 11.508369
v -1.974681 2.912416 11.667589
v -4.092420 2.797080 17.296520
v -8.469436 2.797080 21.043751
v -11.973555 2.797080 22.015007
v -11.973555 3.037079 22.015007
v -9.268619 2.797080 22.491856
v -0.823824 3.037080 12.286046
v -0.823824 2.912416 12.286046
v -4.092420 2.797080 21.043751
v -4.092420 3.037080 11.405251
v -8.469436 2.797080 23.678753
v -6.981345 3.037080 18.984396
v -4.593518 3.037080 19.166300
v 0.284595 2.797080 13.549290
v 0.284595 2.797080 17.296520
v 3.100225 2.797080 12.286850
v -10.418490 3.037080 17.296520
v -9.492281 3.037080 18.243889
v 3.100225 3.037080 12.286850
v 2.229248 3.037080 14.838537
v 1.689736 3.037080 13.889942
v 1.689736 2.912416 13.889942
v -1.869725 2.797080 23.589148
v 3.306400 2.797080 17.296520
v -1.869725 3.037079 23.589148
v -4.092420 3.037080 21.043751
v 0.284595 2.797080 21.043751
v -2.612516 3.037080 19.377789
v -1.024548 3.037080 18.989298
v 2.191823 3.037080 15.706066
v -8.469436 3.037080 18.545540
v 3.306400 3.037079 17.296520
v 1.768304 3.037080 16.741543
v -0.135533 2.797080 21.616102
v -0.135533 3.037079 21.616102
v 0.284595 3.037080 21.043751
v 3.628891 2.797080 22.589182
v 1.093003 2.797080 21.762146
v 1.093003 3.037079 21.762146
v 0.796314 3.037080 13.319852
v -0.549005 3.037080 12.461407
v 3.628891 3.037079 22.589182
v -4.092420 3.037080 19.219797
v 0.284595 3.037080 18.265076
v 0.635311 3.037080 18.071060
v 1.295361 3.037080 17.296520
v -14.263943 2.797080 8.699633
v -14.263943 3.037079 8.699633
v -16.081415 3.037079 9.579206
v -16.081415 2.797080 9.579206
vt 0.400000 0.800000
vt 0.400000 1.000000
vt 0.200000 0.800000
vt 0.800000 1.000000
vt 0.600000 1.000000
vt 0.600000 1.000000
vt 0.800000 1.000000
vt 0.000000 0.600000
vt 0.000000 0.800000
vt 0.200000 0.800000
vt 0.200000 0.600000
vt 0.400000 0.800000
vt 0.400000 1.000000
vt 0.600000 0.800000
vt 0.000000 0.600000
vt 0.200000 0.600000
vt 0.000000 0.800000
vt 0.600000 0.800000
vt 0.400000 0.600000
vt 0.373591 0.064409
vt 0.500000 0.156250
vt 0.421875 0.020934
vt 0.800000 0.800000
vt 0.800000 0.868878
vt 1.000000 0.932145
vt 0.347164 0.123764
vt 0.800000 0.800000
vt 1.000000 0.932145
vt 0.800000 0.868878
vt 0.483667 0.000856
vt 1.000000 0.800000
vt 1.000000 0.800000
vt 1.000000 1.000000
vt 1.000000 1.000000
vt 0.548284 0.007647
vt 0.347164 0.188736
vt 0.800000 0.753178
vt 0.800000 0.753178
vt 0.441667 0.404062
vt 0.458333 0.404062
vt 0.458333 0.312500
vt 0.441667 0.312500
vt 0.373591 0.248091
vt 1.000000 0.719056
vt 1.000000 0.719056
vt 0.000000 0.400000
vt 0.200000 0.400000
vt 0.000000 0.400000
vt 0.200000 0.400000
vt 0.800000 0.667680
vt 0.800000 0.667680
vt 0.400000 0.400000
vt 0.421875 0.291566
vt 0.600000 0.600000
vt 0.408333 0.404062
vt 0.425000 0.404062
vt 0.425000 0.312500
vt 0.408333 0.312500
vt 1.000000 0.648886
vt 0.475000 0.404062
vt 0.491667 0.404062
vt 0.491667 0.312500
vt 0.475000 0.312500
vt 1.000000 0.648886
vt 0.200000 0.000000
vt 0.400000 0.200000
vt 0.200000 0.200000
vt 0.483667 0.311644
vt 0.400000 0.000000
vt 0.548284 0.304853
vt 0.461130 0.404062
vt 0.604552 0.272366
vt 0.604552 0.040134
vt 0.642741 0.092697
vt 0.000000 0.200000
vt 0.200000 0.200000
vt 0.656250 0.156250
vt 0.642741 0.219803
vt 0.000000 0.200000
vt 0.438589 0.404062
vt 0.402792 0.404062
vt 0.404833 0.404062
vt 0.404833 0.312500
vt 0.402792 0.312500
vt 0.600000 0.400000
vt 0.400000 0.200000
vt 0.000000 0.000000
vt 0.000000 0.000000
vt 0.200000 0.000000
vt 0.400750 0.404062
vt 0.400750 0.312500
vt 0.314995 0.600000
vt 0.317713 0.611699
vt 0.381858 0.663099
vt 0.400000 0.671961
vt 0.600000 0.200000
vt 0.406136 0.404062
vt 0.400000 0.000000
vt 0.525000 0.404062
vt 0.541667 0.404062
vt 0.541667 0.312500
vt 0.525000 0.312500
vt 0.800000 0.600000
vt 0.800000 0.400000
vt 1.000000 0.600000
vt 0.492892 0.404062
vt 0.508333 0.404062
vt 0.508333 0.312500
vt 0.310941 0.400000
vt 0.307582 0.404014
vt 0.301514 0.541968
vt 1.000000 0.600000
vt 0.600000 0.714433
vt 0.480096 0.711089
vt 0.541803 0.723717
vt 0.391667 0.404062
vt 0.396667 0.404062
vt 0.396667 0.312500
vt 0.391667 0.312500
vt 0.600000 0.000000
vt 1.000000 0.400000
vt 0.600000 0.000000
vt 0.600000 0.200000
vt 0.800000 0.200000
vt 0.558333 0.404062
vt 0.575000 0.404062
vt 0.575000 0.312500
vt 0.558333 0.312500
vt 0.375000 0.404061
vt 0.375000 0.312500
vt 0.515123 0.404062
vt 1.000000 0.400000
vt 0.608333 0.404061
vt 0.625000 0.404061
vt 0.625000 0.312500
vt 0.608333 0.312500
vt 0.800000 0.000000
vt 0.800000 0.000000
vt 0.800000 0.200000
vt 1.000000 0.200000
vt 1.000000 0.000000
vt 1.000000 0.000000
vt 0.836348 0.600000
vt 0.800000 0.658063
vt 1.000000 0.200000
vt 0.400000 0.333336
vt 0.340572 0.349436
vt 0.545883 0.404062
vt 0.588145 0.404062
vt 0.591667 0.404062
vt 0.591667 0.312500
vt 0.601376 0.404062
vt 0.398118 0.404062
vt 0.400304 0.404062
vt 0.600000 0.297349
vt 0.577103 0.300205
vt 0.467996 0.309913
vt 0.587671 0.030388
vt 0.573886 0.022429
vt 0.566993 0.018449
vt 0.560100 0.014470
vt 0.800000 0.348305
vt 0.740181 0.309652
vt 0.667622 0.288917
vt 0.866898 0.400000
vt 0.822655 0.360812
vt 0.659323 0.708930
vt 0.751020 0.700432
vt 0.792420 0.667423
vt 0.897950 0.557375
vt 0.933366 0.508188
vt 0.929089 0.470776
vt 0.898997 0.425687
vt 0.200000 1.000000
vt 0.200000 1.000000
vt 0.000000 1.000000
vt 0.000000 1.000000
vn -0.000000 1.000000 -0.000000
vn -0.000000 1.000000 -0.000000
vn -0.000000 1.000000 -0.000000
vn -0.000000 1.000000 -0.000000
vn 0.070641 0.000000 -0.997502
vn -0.026952 0.000000 -0.999637
vn -0.026952 0.000000 -0.999637
vn 0.070641 0.000000 -0.997502
vn 0.000000 -1.000000 0.000000
vn 0.000000 -1.000000 0.000000
vn 0.000000 -1.000000 0.000000
vn 0.000000 -1.000000 0.000000
vn 0.000000 -1.000000 0.000000
vn 0.000000 -1.000000 0.000000
vn 0.000000 -1.000000 0.000000
vn 0.000000 -1.000000 0.000000
vn -0.000000 1.000000 0.000000
vn -0.000000 1.000000 0.000000
vn -0.000000 1.000000 0.000000
vn 0.000000 1.000000 -0.000000
vn 0.000000 1.000000 -0.000000
vn -0.999613 0.000000 0.027801
vn -0.985986 0.000000 0.166828
vn -0.985986 0.000000 0.166828
vn -0.999613 0.000000 0.027801
vn 0.000000 -1.000000 0.000000
vn 0.000000 1.000000 -0.000000
vn 0.000000 1.000000 0.000000
vn 0.000000 1.000000 0.000000
vn 0.000000 -1.000000 0.000000
vn 0.000000 -1.000000 -0.000000
vn 0.000000 -1.000000 0.000000
vn 0.000000 1.000000 0.000000
vn 0.000000 1.000000 -0.000000
vn -0.000000 1.000000 -0.000000
vn 0.000000 1.000000 -0.000000
vn 0.000000 1.000000 0.000000
vn 0.000000 -1.000000 0.000000
vn -0.000000 1.000000 -0.000000
vn -0.018893 0.000000 -0.999821
vn -0.018893 0.000000 -0.999821
vn 0.000000 1.000000 0.000000
vn 0.000000 1.000000 -0.000000
vn 0.000000 -1.000000 0.000000
vn 0.000000 1.000000 -0.000000
vn 0.464143 0.000001 0.885760
vn 0.565692 0.000000 0.824617
vn 0.565692 0.000000 0.824617
vn 0.464143 0.000001 0.885760
vn 0.000000 1.000000 -0.000000
vn 0.000000 -1.000000 0.000000
vn 0.000000 1.000000 0.000000
vn 0.000000 -1.000000 0.000000
vn 0.000000 -1.000000 0.000000
vn 0.000000 -1.000000 -0.000000
vn 0.000000 -1.000000 0.000000
vn -0.000000 1.000000 0.000000
vn -0.000000 1.000000 0.000000
vn 0.000000 1.000000 -0.000000
vn 0.000000 1.000000 -0.000000
vn 0.000000 -1.000000 0.000000
vn 0.000000 1.000000 0.000000
vn 0.000000 -1.000000 -0.000000
vn 0.000000 1.000000 0.000000
vn 0.360465 0.000000 -0.932773
vn 0.602232 0.000000 -0.798321
vn 0.602232 0.000000 -0.798321
vn 0.360465 0.000000 -0.932773
vn 0.000000 -1.000000 0.000000
vn -0.011974 0.000001 0.999928
vn 0.308625 0.000001 0.951184
vn 0.308625 0.000001 0.951184
vn -0.011974 0.000001 0.999928
vn 0.000000 -1.000000 -0.000000
vn 0.998381 0.000000 0.056886
vn 0.998683 0.000000 -0.051311
vn 0.998683 0.000000 -0.051311
vn 0.998381 0.000000 0.056886
vn 0.000000 1.000000 0.000000
vn -0.014375 0.000000 0.999897
vn -0.014375 0.000000 0.999897
vn -0.014375 0.000000 0.999897
vn -0.014375 0.000000 0.999897
vn -0.000000 1.000000 0.000000
vn -0.000000 1.000000 0.000000
vn -0.000000 1.000000 0.000000
vn -0.000000 1.000000 0.000000
vn 0.000000 1.000000 -0.000000
vn 0.000000 1.000000 0.000000
vn 0.163491 0.000000 -0.986545
vn 0.163491 0.000000 -0.986545
vn 0.965100 0.000000 0.261880
vn 0.965100 0.000000 0.261880
vn 0.965100 0.000000 0.261880
vn 0.000000 1.000000 0.000000
vn 0.000000 1.000000 -0.000000
vn 0.000000 1.000000 -0.000000
vn 0.000000 -1.000000 0.000000
vn 0.000000 -1.000000 -0.000000
vn 0.000000 1.000000 -0.000000
vn 0.000000 1.000000 0.000000
vn -0.989624 0.000000 0.143685
vn -0.948990 0.000000 0.315305
vn -0.948990 0.000000 0.315305
vn -0.989624 0.000000 0.143685
vn -0.000000 1.000000 0.000000
vn 0.385839 0.000002 0.922566
vn -0.295569 0.000000 0.955321
vn -0.127594 0.000001 0.991827
vn -0.127594 0.000001 0.991827
vn -0.295569 0.000000 0.955321
vn 0.000000 -1.000000 0.000000
vn 0.000000 -1.000000 -0.000000
vn 0.820260 0.000000 -0.571991
vn 0.653193 0.000000 -0.757191
vn 0.653193 0.000000 -0.757191
vn 0.820260 0.000000 -0.571991
vn -0.869653 0.000000 0.493664
vn -0.869653 0.000000 0.493664
vn 0.000000 -1.000000 0.000000
vn 0.000000 -1.000000 -0.000000
vn -0.518557 -0.000001 0.855043
vn -0.518557 -0.000001 0.855043
vn -0.000000 1.000000 0.000000
vn -0.173612 0.000000 0.984814
vn -0.173612 0.000000 0.984814
vn -0.173612 0.000000 0.984814
vn -0.173612 0.000000 0.984814
vn 0.000000 1.000000 0.000000
vn 0.000000 1.000000 0.000000
vn 0.000000 1.000000 0.000000
vn 0.000000 1.000000 0.000000
vn 0.902321 0.000000 -0.431064
vn 0.902321 0.000000 -0.431064
vn 0.000000 -1.000000 -0.000000
vn -0.135318 0.000002 0.990802
vn 0.000000 -1.000000 -0.000000
vn 0.185043 0.000002 -0.982730
vn 0.089683 0.000001 -0.995970
vn 0.089683 0.000001 -0.995970
vn 0.185043 0.000002 -0.982730
vn 0.000000 -1.000000 0.000000
vn 0.000000 -1.000000 0.000000
vn 0.000000 -1.000000 -0.000000
vn 0.715048 -0.000005 -0.699076
vn 0.715048 -0.000005 -0.699076
vn 0.715048 -0.000005 -0.699076
vn 0.448790 -0.000000 -0.893637
vn 0.448790 -0.000000 -0.893637
vn 0.000000 1.000000 -0.000000
vn 0.000000 1.000000 0.000000
vn 0.000000 1.000000 0.000000
vn -0.829487 0.000000 0.558526
vn -0.829487 0.000000 0.558526
vn -0.829487 0.000000 0.558526
vn -0.829487 0.000000 0.558526
vn 0.989528 0.000000 -0.144339
vn 0.989528 0.000000 -0.144339
vn 0.000000 1.000000 0.000000
vn 0.000000 1.000000 0.000000
vn 0.000000 1.000000 0.000000
vn -0.869245 0.000000 0.494382
vn -0.641409 -0.000001 0.767199
vn -0.641409 -0.000001 0.767199
vn -0.869245 0.000000 0.494382
vn 0.000000 -1.000000 -0.000000
vn 0.000000 -1.000000 0.000000
vn 0.000000 1.000000 0.000000
vn 0.000000 1.000000 0.000000
vn 0.000000 -1.000000 -0.000000
vn -0.049534 0.000002 -0.998773
vn -0.373261 -0.000002 -0.927727
vn -0.373261 -0.000002 -0.927727
vn -0.049534 0.000002 -0.998773
vn -0.971896 0.000000 -0.235412
vn -0.999071 0.000000 -0.043099
vn -0.999071 0.000000 -0.043099
vn -0.971896 0.000000 -0.235412
vn 0.282868 0.000003 -0.959159
vn 0.998686 0.000000 -0.051248
vn 0.998686 0.000000 -0.051248
vn -0.835320 0.000000 -0.549764
vn -0.835320 0.000000 -0.549764
vn 0.013576 0.000000 0.999908
vn 0.013576 0.000000 0.999908
vn 0.013576 0.000000 0.999908
vn 0.013576 0.000000 0.999908
vn 0.000000 -1.000000 -0.000000
vn 0.000000 1.000000 0.000000
vn 0.000000 1.000000 0.000000
vn 0.000000 -1.000000 0.000000
vn 0.751108 0.000000 0.660179
vn 0.751108 0.000000 0.660179
vn 0.751108 0.000000 0.660179
vn 0.751108 0.000000 0.660179
vn -0.118045 0.000000 0.993008
vn -0.250267 0.000000 0.968177
vn -0.250267 0.000000 0.968177
vn -0.118045 0.000000 0.993008
vn 0.000000 1.000000 0.000000
vn 0.000000 1.000000 0.000000
vn 0.000000 1.000000 0.000000
vn 0.000000 -1.000000 0.000000
vn -0.000000 1.000000 0.000001
vn 0.000000 1.000000 0.000000
vn 0.998149 0.000000 -0.060819
vn 0.998149 0.000000 -0.060819
vn 0.000000 1.000000 -0.000000
vn 0.000000 1.000000 -0.000000
vn -0.310060 0.000000 0.950717
vn -0.310060 0.000000 0.950717
vn 0.106156 0.000003 -0.994349
vn -0.484068 -0.000003 -0.875030
vn -0.626984 -0.000002 -0.779032
vn -0.626984 -0.000002 -0.779032
vn -0.761118 0.000000 -0.648613
vn -0.537916 -0.000001 0.842999
vn -0.537916 -0.000001 0.842999
vn 0.000000 1.000000 -0.000000
vn 0.000000 1.000000 -0.000000
vn 0.000000 1.000000 -0.000000
vn 0.000000 1.000000 0.000000
vn 0.000000 1.000000 0.000000
vn 0.000000 1.000000 0.000000
vn 0.000000 1.000000 0.000000
vn 0.000000 1.000000 0.000000
vn 0.000000 1.000000 0.000000
vn 0.000000 1.000000 0.000000
vn 0.000000 1.000000 0.000000
vn 0.000000 1.000000 0.000000
vn 0.000000 1.000000 0.000000
vn 0.000000 1.000000 0.000000
vn 0.000000 1.000000 0.000000
vn 0.000000 1.000000 0.000000
vn 0.000000 1.000000 0.000000
vn 0.000000 1.000000 0.000000
vn 0.000000 1.000000 0.000000
vn 0.000000 1.000000 0.000000
vn 0.000000 -1.000000 0.000000
vn -0.451737 0.000000 -0.892151
vn -0.451737 0.000000 -0.892151
vn -0.000000 1.000000 -0.000000
vn 0.000000 -1.000000 0.000000
vn -0.985654 0.000000 -0.168777
vn -0.985654 0.000000 -0.168777
vn -0.550107 0.000000 -0.835094
vn -0.550107 0.000000 -0.835094
vn -0.435622 0.000000 -0.900130
vn -0.435622 0.000000 -0.900130
s 1
g polySurface2
usemtl initialShadingGroup
f 3/3/1 1/1/2 2/2/3 125/175/4
s 2
f 4/4/5 5/5/6 6/6/7 7/7/8
s 3
f 8/8/9 9/9/10 10/10/11 11/11/12
f 12/12/13 13/13/14 5/5/15 14/14/16
s 1
f 15/15/17 16/16/18 3/3/1 17/17/19
f 1/1/2 18/18/20 6/6/21 2/2/3
s 6
f 9/9/22 8/8/23 15/15/24 17/17/25
s 3
f 11/11/12 10/10/11 12/12/13 19/19/26
s 7
f 20/20/27 21/21/28 22/22/29
s 3
f 23/23/30 24/24/31 25/25/32
s 7
f 26/26/33 21/21/28 20/20/27
s 1
f 27/27/34 28/28/35 29/29/36
s 7
f 22/22/29 21/21/28 30/30/37
s 3
f 23/23/30 25/25/32 31/31/38
s 1
f 27/27/34 32/32/39 28/28/35
s 2
f 33/33/40 4/4/5 7/7/8 34/34/41
s 7
f 30/30/37 21/21/28 35/35/42
f 36/36/43 21/21/28 26/26/33
s 3
f 37/37/44 23/23/30 31/31/38
s 1
f 38/38/45 32/32/39 27/27/34
s 9
f 39/39/46 40/40/47 20/41/48 22/42/49
s 7
f 41/43/50 21/21/28 36/36/43
s 3
f 37/37/44 31/31/38 42/44/51
s 1
f 38/38/45 43/45/52 32/32/39
s 3
f 44/46/53 8/8/9 11/11/12 45/47/54
f 24/24/31 4/4/55 33/33/56 25/25/32
s 1
f 46/48/57 47/49/58 16/16/18 15/15/17
f 29/29/36 28/28/35 34/34/59 7/7/60
s 3
f 48/50/61 37/37/44 42/44/51
s 1
f 49/51/62 43/45/52 38/38/45
s 3
f 45/47/54 11/11/12 19/19/26 50/52/63
s 7
f 51/53/64 21/21/28 41/43/50
s 10
f 25/25/65 33/33/66 34/34/67 28/28/68
s 3
f 19/19/26 12/12/13 14/14/16 52/54/69
s 9
f 53/55/70 54/56/71 30/57/72 35/58/73
s 3
f 48/50/61 42/44/51 55/59/74
s 11
f 56/60/75 57/61/76 36/62/77 26/63/78
s 1
f 49/51/62 58/64/79 43/45/52
s off
f 8/8/80 44/46/81 46/48/82 15/15/83
s 1
f 60/66/84 61/67/85 59/65/86 63/69/87
s 7
f 62/68/88 21/21/28 51/53/64
s 3
f 14/14/16 5/5/15 4/4/55 24/24/31 23/23/30
s 7
f 64/70/89 21/21/28 62/68/88
s 1
f 18/18/20 27/27/34 29/29/36 7/7/60 6/6/21
s 10
f 31/31/90 25/25/65 28/28/68 32/32/91
s 11
f 20/41/92 40/40/93 65/71/94 56/60/75 26/63/78
s 7
f 66/72/95 21/21/28 64/70/89
f 67/73/96 21/21/28 68/74/97
s 3
f 69/75/98 44/46/53 45/47/54 70/76/99
s 7
f 68/74/97 21/21/28 71/77/100
f 72/78/101 21/21/28 66/72/95
s 13
f 44/46/102 69/75/103 73/79/104 46/48/105
s 7
f 71/77/100 21/21/28 72/78/101
s 1
f 73/79/106 61/67/85 47/49/58 46/48/57
s 9
f 30/57/72 54/56/71 74/80/107 39/39/46 22/42/49
f 75/81/108 76/82/109 77/83/110 78/84/111
s 3
f 50/52/63 19/19/26 52/54/69 79/85/112
f 70/76/99 45/47/54 50/52/63 80/86/113
s 14
f 42/44/114 31/31/115 32/32/116 43/45/117
s 13
f 69/75/103 81/87/118 82/88/119 73/79/104
s 3
f 81/87/120 69/75/98 70/76/99 83/89/121
s 9
f 84/90/122 75/81/108 78/84/111 85/91/123
s 1
f 82/88/124 59/65/86 61/67/85 73/79/106
s off
f 81/87/125 83/89/126 59/65/127 82/88/128
s 1
f 16/16/18 65/92/129 40/93/130 39/94/131 74/95/132 1/1/2 3/3/1
s 14
f 55/59/133 42/44/114 43/45/117 58/64/134
s 3
f 80/86/113 50/52/63 79/85/112 86/96/135
s 9
f 76/82/109 87/97/136 53/55/70 35/58/73 77/83/110
s 3
f 83/89/121 70/76/99 80/86/113 88/98/137
s 15
f 89/99/138 90/100/139 62/101/140 51/102/141
s 3
f 79/85/112 52/54/69 91/103/142 92/104/143
f 91/103/142 48/50/61 55/59/74 93/105/144
s 15
f 36/62/145 57/61/146 94/106/147 95/107/148 41/108/149
s 1
f 47/49/58 94/109/150 57/110/151 56/111/152 65/92/129 16/16/18
s off
f 83/89/153 88/98/154 63/69/155 59/65/156
s 14
f 93/105/157 55/59/133 58/64/134 96/112/158
s 1
f 87/113/159 18/18/20 1/1/2 74/95/132 54/114/160 53/115/161
s 9
f 97/116/162 98/117/163 99/118/164 67/119/165
s 3
f 88/98/137 80/86/113 86/96/135 100/120/166
f 92/104/143 91/103/142 93/105/144 101/121/167
s 1
f 63/69/87 102/122/168 103/123/169 60/66/84
s 3
f 86/96/135 79/85/112 92/104/143 104/124/170
s 15
f 105/125/171 106/126/172 66/127/173 64/128/174
f 107/129/175 97/116/176 67/119/177 68/130/178
f 41/108/149 95/107/148 108/131/179 89/99/138 51/102/141
s 14
f 101/121/180 93/105/157 96/112/158 109/132/181
s 15
f 110/133/182 107/134/175 68/135/178 71/136/183
s off
f 88/98/184 100/120/185 102/122/186 63/69/187
s 3
f 100/120/166 86/96/135 104/124/170 111/137/188
s 1
f 102/122/168 112/138/189 113/139/190 103/123/169
s 3
f 104/124/170 92/104/143 101/121/167 114/140/191
s off
f 100/120/192 111/137/193 112/138/194 102/122/195
s 18
f 111/137/196 115/141/197 116/142/198 112/138/199
s 1
f 117/143/200 96/112/201 58/64/79 49/51/62 118/144/202
s 3
f 111/137/188 104/124/170 114/140/191 115/141/203
s 1
f 112/138/189 116/142/204 119/145/205 113/139/190
s 14
f 114/140/206 101/121/180 109/132/181 119/145/207
s 1
f 61/67/85 60/66/84 108/146/208 95/147/209 94/109/150 47/49/58
s 18
f 115/141/197 114/140/210 119/145/211 116/142/198
s 3
f 52/54/69 14/14/16 23/23/30 37/37/44 48/50/61 91/103/142
s 15
f 62/101/140 90/100/139 120/148/212 105/125/171 64/128/174
f 66/127/173 106/126/172 121/149/213 122/150/214 72/151/215
f 72/151/215 122/150/214 123/152/216 110/133/182 71/136/183
s 9
f 98/117/163 117/153/217 118/154/218 84/90/122 85/91/123 99/118/164
s 1
f 60/66/84 103/123/169 120/155/219 90/156/220 89/157/221 108/146/208
s 7
f 35/35/42 21/21/28 67/73/96 99/158/222 85/159/223 78/160/224 77/161/225
s 1
f 103/123/169 113/139/190 121/162/226 106/163/227 105/164/228 120/155/219
f 113/139/190 119/145/205 109/132/229 123/165/230 122/166/231 121/162/226
f 118/144/202 49/51/62 38/38/45 27/27/34 18/18/20 87/113/159 76/167/232 75/168/233 84/169/234
f 123/165/230 109/132/229 96/112/201 117/143/200 98/170/235 97/171/236 107/172/237 110/173/238
s 3
f 10/10/11 124/174/239 13/13/14 12/12/13
s 2
f 5/5/6 13/13/240 2/2/241 6/6/7
s 1
f 17/17/19 3/3/1 125/175/4 126/176/242
s 3
f 9/9/10 127/177/243 124/174/239 10/10/11
s 6
f 127/177/244 9/9/22 17/17/25 126/176/245
s 2
f 13/13/240 124/174/246 125/175/247 2/2/241
f 124/174/246 127/177/248 126/176/249 125/175/247
